<svg version="1" xmlns="http://www.w3.org/2000/svg" width="682.667" height="682.667" viewBox="0 0 512.000000 512.000000"><path d="M0 35c.1 30.9.3 35 1.6 35 .9 0 1.8-.8 2.1-1.9.2-1 1.6-2.4 2.9-3C7.9 64.5 9 63.6 9 63c0-.7-.7-.4-1.6.5-2 2-3.2 1.1-1.4-1 .7-.8.8-1.5.2-1.5-.5 0-1.3-.7-1.6-1.6-.5-1.2-.1-1.4 1.7-1 1.2.3 1.6.3 1 0C4.9 57.3 5.9 55 8.7 55c2.7 0 2.7 0 .6-1.5-1.5-1.1-2-2.2-1.7-3.8.3-1.2.6-2.9.6-3.7 0-.8.6-2.1 1.2-2.9.9-1.2.7-1.2-1.4-.1-1.4.7-2.8 1.8-3.2 2.4-.6.8-.8.7-.8-.1 0-.6.8-1.8 1.8-2.5 2.1-1.5 4.2-4.5 2.4-3.4-.8.5-1 .2-.6-.8.3-.9.9-1.4 1.3-1.1 1.2.7.9-2.9-.3-3.7-.6-.4 0-1.7 1.7-3.4 2.5-2.4 2.6-2.9 1.2-4.4-2.2-2.4-2-5.4.4-4.7 1 .2 1.8-.1 1.8-.7-.1-3.4.4-4.7 1.5-4 .7.5.8.3.3-.6-1-1.5 1.4-3.1 3.7-2.4.9.2 2-.1 2.4-.7.4-.7.3-.9-.4-.5-.6.3-1.3.2-1.6-.3-1-1.6 4.5-2.3 6.3-.8 1 1 2.3 1.2 3.6.7 1.9-.8 1.9-.9-.1-.9-1.2-.1-2.8-.8-3.5-1.8-1.3-1.5-1.2-1.5 1-.3 2.1 1.1 2.6 1 3.6-.4C31.8 6.8 34 6.4 34 8c0 .5-.4 1-1 1-.5 0-1 .5-1 1 0 .6.8.5 1.9-.2 1.1-.7 1.7-1.6 1.4-2.1-.3-.5.1-1.3.8-1.8C38 4.7 39 4.8 39 6.1c0 .5-.4.7-1 .4-.6-.3-.7.1-.3 1 .5 1.4.8 1.4 1.5.3.7-1 1.1-1 1.5-.1.2.7.9 1.3 1.4 1.3 1.5 0 1-2.2-.8-3.6-1-.7-1.3-1.4-.6-1.4.6 0 1.5.5 1.8 1 .4.6 1 .8 1.5.5.5-.3 1.1-.1 1.5.4.3.6 1.3.8 2.3.5 1.4-.5 1.4-.4.2.4-1 .8-1.8.8-2.7 0-.9-.7-1.3-.7-1.3.1 0 1.1 1.3 1.5 3.7 1.2.6-.1 1.4.3 1.8.9.3.5 1.1 1 1.7 1 .6 0 .5-.7-.3-1.7-1.2-1.4-1.2-1.6.1-1.1.8.2 2.1-.2 2.9-.9 1.1-1.2 1.5-1.2 2.2-.2.4.7.5 1.7.3 2.1-1.1 1.7 1.3.7 3.9-1.8 1.5-1.4 3.9-2.7 5.2-2.8 1.4-.2 2.8-.6 3.3-1.1.4-.4.1-.5-.5-.1-.8.4-1.3.1-1.3-.8C67 .2 63.2 0 33.5 0H0v35zM59.5 5.9c-.9 1.6-2.5.3-1.8-1.5.4-1 .9-1.2 1.5-.6s.7 1.5.3 2.1zM12.8 18.2c-.5 1.5-2.3 1.1-2.6-.6-.2-1.1.2-1.4 1.3-1 .9.4 1.4 1.1 1.3 1.6zm-1.4 8.7c.3.5-.1 1.1-.9 1.4-.9.4-1.2.1-.8-.9.6-1.6 1-1.7 1.7-.5zM6.5 49c-.9 1.6-1.7 3-1.9 3-.8 0-.1-3.5.9-4.7C7.4 45 8 46 6.5 49zM428.4 1.1c-.3.6-.2 1.4.2 1.8 1.1.7 1.2 18.1.1 19.8-.5.8-.3 1.3.4 1.3.8 0 .9.4 0 1.3-.8 1-.7 1.7.2 2.6.7.7.8 1.4.2 1.9-1.4 1-1.5 4.2-.1 4.2.7 0 .6.4-.3.9-.9.6-1 1.4-.4 2.7 1.1 2.1 1 12.5-.1 14.3-.4.6-.2 1.1.5 1.1.9 0 .9.3 0 1.4-.8 1-.9 1.6-.1 2.1.6.3.8 1 .5 1.5-.3.5-.1 1.1.5 1.5 1.6 1 1.2 2.8-.4 2.2-1.5-.6-1.2 1.6.5 3.8.4.6.4 2.6 0 4.5-.4 2.2-.2 4.4.6 6 .8 1.6.9 2.8.3 3.4-1.4 1.4-1.3 2.9.1 2 .8-.5.9-.2.1 1.1-.5 1.1-.6 3-.2 4.6.5 1.6.4 3.1-.3 3.8-.7.7-.6 1.5.3 2.6 1 1.2 1 1.8 0 3-.7.8-.9 1.5-.4 1.5s1 3 1.2 6.7c.2 3.8.8 7.1 1.5 7.5.8.6.9 1 .1 1.5-.8.7-1.1 5.3-.4 7.3.1.3.1 1.8.1 3.5-.2 2.3 0 2.7.8 1.5.9-1.3 1.1-1.3 1.1.1 0 .9-.3 1.9-.7 2.3-1.2 1.1-1.2 7.6 0 7.6.6 0 .6.4 0 1.2-1.6 2-2.2 5.7-1.2 6.4.6.3.5 1.1-.2 2-.9 1.1-.8 1.4.5 1.4 1.6 0 1.6.1.1 1.6-.9 1-1.2 2-.8 2.3 1.2.8 1.4 7.9.2 8.7-.5.3-.9 1-.9 1.5 0 .6.4.8.9.5.5-.3.8.2.7 1.2 0 .9.4 1.6 1 1.5.7-.1 1 .6.7 1.7-.3 1.1-.9 1.7-1.4 1.4-1.8-1.1-.8 2 1.4 4.4 1.2 1.4 1.7 2.2 1.1 1.9-.7-.4-1.4 0-1.7.7-.3.8-.1 1.6.4 1.8.6.2.7 1.1.4 2.1-.4.9-1.1 1.4-1.6 1.1-.5-.3-.6.2-.3 1s.1 2.4-.6 3.5c-1.3 2.6-.3 2.8 1.7.3 1.4-1.6 1.4-1.6.9.1-.3.9-.1 2.8.4 4.2.8 2 .7 2.3-.8 1.8-1.4-.5-1.5-.4-.6.8.6.8 1 2.4.9 3.6-.1 1.2.2 2 .7 1.7 1.1-.7-.1 4.7-1.3 6-1.4 1.5-1.1 2.6.8 2.6 1.3 0 1.4.3.5 1.2-1.6 1.6-1.5 2.8.3 2.8.9 0 1.2.6.9 1.5-.4.8-1 1.2-1.5.9-.5-.3-.9 0-.9.5 0 .6.4 1.1.9 1.1.6 0 .6 1.2 0 3.2-.6 2.2-.5 3.4.2 3.9.7.4.8 1.2.5 1.8-.4.6 0 1.1 1.1 1.1s1.4.3.7.8c-1.5 1-2.7 4.9-1.6 5.6.9.5.8 5.2-.3 7.8-.4 1.1-.3 1.8.4 1.8.8 0 .9.6.2 1.8-.7 1.3-.6 2.3.1 3 .9.9.8 1.2-.5 1.2-.9 0-1.7.7-1.7 1.5 0 .9.6 1.2 1.5.9.8-.4 1.5-.2 1.5.4 0 .6-.6 1.3-1.2 1.5-.8.3-.5.6.5.6 1 .1 1.6.5 1.3 1-.3.5.1 1.4.9 2.1.7.6 1.2 1.7.9 2.5-.3.7-.1 1.6.5 2 .6.3 1.1 1.5 1.1 2.6 0 1 .4 1.9.8 1.9.5 0 1.5 1.1 2.2 2.5.7 1.4 1.9 2.5 2.7 2.5.7 0 1.3.4 1.3.9s.8 1.1 1.8 1.5c1.7.5 5.2 2.6 6.2 3.6.6.6 2.7 1.1 6 1.6 1.3.1 2.6.8 2.8 1.3.2.6.8.8 1.4.5.5-.3 1.6.4 2.5 1.6.8 1.2 2.1 1.9 2.9 1.6 1.6-.6 4.4 1.9 4.4 4 0 .8.8 1.4 1.8 1.4.9 0 2.8 1.3 4.2 2.9 1.3 1.7 2.8 2.7 3.3 2.4.6-.3.7-.1.3.5-.4.6-1.4.8-2.2.5-1.3-.5-1.4-.3-.6 1.3 1.6 3 5.2 5.9 6 4.9.4-.6 1.4-1 2.2-1 .9 0 1.4-.8 1.3-2.1-.2-1.4.4-2.4 1.7-2.7 1.1-.3 1.8 0 1.7.5-.1.6.4 1.3 1.1 1.5.8.3 1-.1.6-1.1s-.1-1.6.7-1.6c.9 0 1-.3.4-.8-1.4-1-1.4-3.9 0-3.9.7 0 1.1 1.3.9 3.4-.2 2.3.2 3.3.9 3 .7-.2 1.1-1.7 1-3.3-.2-2.7-.1-2.8 1.2-1 .8 1.1 1.6 1.6 1.6 1 .3-2.2.5-3 1.2-5.1.5-1.3.3-3.1-.4-4.4-1-1.9-.9-2.1.5-1.6 1.2.5 1.5.1 1.3-1.6-.1-1.2-.6-2.5-1.1-2.9-.6-.4-.4-1.3.3-2.2.9-1.1 1-1.6.2-1.6-.6 0-1.1.5-1.1 1.2 0 .6-1 .1-2.1-1.1-1.8-1.9-1.9-2.5-.8-3.3 1.1-.8 1-.9-.3-.5-.9.3-2.8-.3-4.1-1.3-1.3-1.1-2.8-1.6-3.3-1.2-.5.4-.2-.1.5-1.1 1.2-1.5 1.2-1.7-.1-1.2-1.1.4-1.4-.3-1.4-3.5.1-4 .1-4 1.8-1.7l1.8 2.2-.6-3.3c-.4-2.1-.3-3.2.5-3.2.7 0 .9.5.6 1-.9 1.5-.2 1.2 3.4-1.4 1.8-1.4 2.8-2.7 2.2-3-.6-.4-1.6.2-2.2 1.3-1 1.6-1.5 1.7-2.6.6-1.7-1.7-1.7-3.1 0-1.7.8.7 1.6.6 2.5-.4.7-.7 1.2-1.6 1.2-1.9v-1.2c0-.4.7.2 1.5 1.3 1.4 1.8 1.5 1.7.9-1-.5-2.1-.4-2.7.5-2.2.6.4 1.1.2 1.1-.3 0-.6-.6-1.1-1.2-1.1-1 0-1-.2 0-.9.8-.5 1.2-2.1.9-4.2-.3-2.7-.8-3.4-2.4-3.2-1.2.1-2-.4-2-1.3 0-.8.6-1.3 1.4-1 1 .4.9 0-.2-1.8-.9-1.3-1.3-3.2-.9-4.2.5-1.8.5-1.8-.6-.2-1.5 2.5-3.4 2.3-2-.1 1.3-2.5-.5-3.8-2-1.4-.8 1.4-.9 1.2-.4-1.2.4-1.7.8-3.2 1-3.4.1-.2-.6-1.3-1.7-2.4-1.1-1.2-1.7-2.7-1.5-3.4.3-.7-.1-1-1.1-.6-1.2.5-1.4.1-.8-1.5.4-1.5.2-2.2-.7-2.2-1 0-1-.2.1-.9.9-.6 1-1.1.2-1.5-.8-.5-.8-1.3-.1-2.7.8-1.5.8-1.9-.2-1.7-.8.2-1.3-.7-1.3-2.5.1-2-.3-2.6-1.3-2.2-1.2.4-1.3.3-.2-1 .7-.8 1.7-1.2 2.4-.8.8.4.7.2-.1-.7-.6-.7-.9-1.9-.6-2.8.5-1.1.2-1.3-.8-.8-.8.4-.5 0 .6-.9 2-1.6 2-1.6.1-3.1-2-1.4-2-1.4 0-2.9 1.6-1.3 1.6-1.4.2-.9-1.4.5-1.8.1-1.8-1.5 0-1.2.7-2.4 1.5-2.7.8-.4 1.5-1 1.5-1.6 0-.5-.4-.6-1-.3s-.7-.1-.4-1c.4-.9 1.2-1.4 1.9-1.1.8.3 1.1-.2.8-1.2-.5-2.2 3.3-6.3 5.2-5.6 1.8.7 2-1.2.3-2-.7-.3-.2-.3 1 0 2.1.5 2.3.3 1.8-1.4-.7-2 .9-4 2.2-2.7.3.3 0 1-.8 1.5-1.3.8-1.2 1 .2 1 1.2 0 1.6-.8 1.6-3-.1-3.4-.9-3.7-3.2-1.4-1.5 1.4-1.6 1.3-1.6-1 0-2.1.4-2.4 2.5-2 1.4.2 2.5 0 2.5-.6 0-.5-.4-1-1-1-.5 0-1-.9-1-2.1 0-1.1.4-1.8.9-1.5 1.1.7 2.3-2.2 1.5-3.5-.3-.5-1-.9-1.6-.9-.7 0-.6.6.2 1.5 1 1.2 1 1.5-.4 1.5-1.9 0-2-1.3-.5-4.1.9-1.7.8-2-.8-1.9-1 .1-2.6.2-3.7.1-1.6-.1-1.6-.3-.5-1.7 1-1.3 1-1.7 0-2.4-.8-.4-.9-1-.3-1.4 1.3-.8 3.6 2 2.7 3.3-.3.7 0 .8 1 .5 1.2-.5 1.3-1 .4-2-.6-.7-.9-1.7-.6-2.1.3-.4-.6-.9-2-1-1.4 0-2.9-.6-3.3-1.2-.4-.7-1.5-.9-2.6-.5-1.4.5-1.6.4-.8-.5 1.2-1.3.6-7.1-.7-7.1-.5 0-.9-.7-.9-1.6 0-.8.5-1.2 1-.9.6.3 1 .1 1-.5 0-.7.7-.9 1.5-.6 1 .4 1.9-.2 2.4-1.6.5-1.5 1-1.8 1.5-.9.9 1.4 3.6-.4 3.6-2.4 0-.8.8-1.1 2-.8 1.2.3 2 0 2-.7s.6-1 1.4-.7c1 .4 1.2 0 .8-1.5-.4-1.5-.2-1.9.7-1.3 1 .6 1.1.2.6-1.5-.5-1.5-.4-2 .4-1.6.7.4 1.1 0 1.1-1.2 0-1-1-2.4-2.2-3.1-1.3-.6-1.5-.9-.5-.7.9.3 1.7.1 1.7-.4 0-.6-.6-1-1.4-1-.8 0-1.8-.5-2.2-1.2-.4-.6-.3-.8.2-.5.6.3 1.6.2 2.3-.2 1-.7 1.1-1.3.1-3.1-1-1.9-1-2.4.5-3.3 1.4-.8 1.5-1.1.4-1.8-.9-.6-1-1.2-.4-1.7.6-.4 1.1-2.1 1.2-3.9.2-2.4-.2-3.3-1.7-3.8-1.1-.4-1.7-1.1-1.4-1.7.4-.6 1-.5 1.5.3.6 1 .9 1 .9.2 0-.7-.7-1.6-1.6-2.1-1-.5-1.4-1.5-1-2.1.6-.9 1.1-.9 2.1-.1 1.2 1 1.4-5.2 1.5-39.9V.1L470.6 0c-29.8 0-41.7.3-42.2 1.1zm70 75.4c.3-.3.2 0-.4.7-.7.8-.5 1.7.7 3 2 2.2 3.6 2.3 5.3.3 1.4-1.7 3-2 3-.4 0 .5-.5.7-1.2.3-.8-.5-.9-.2-.5.9.3.9.2 2.7-.4 3.9-.9 2.2-.9 2.1-.6-.5.3-2 .1-2.5-.8-1.7-.6.5-1.6.6-2 .2-.5-.4-.5-.2-.1.5.3.6.2 1.4-.4 1.8-.5.3-1 .1-1-.5 0-.8-.6-.7-2.2.1-1.8.9-2 .9-1.5-.4.3-.8 0-1.8-.7-2-1-.4-1.2.1-.9 1.4.4 1.4 0 1.9-1.3 1.9-1.4 0-1.5-.3-.6-.8.9-.7.7-1.3-.9-2.8-2.2-1.9-2.2-1.9-1.5.3.4 1.3.2 2.4-.5 2.9-.8.5-.9.3-.4-.6.4-.7.2-1.6-.6-2.1-1.2-.8-1.2-1 0-1.8.7-.5 1.1-1.3.8-1.7-.5-1 1.2-2.8 3.1-3.1.6-.2.9.4.6 1.2-.4.9 0 1.5.8 1.5 2.3 0 2.9-1.2 1.5-2.9-1-1.4-1-1.4.4-.4.9.7 1.9 1.1 2.3.8zm3.9 2.8c.4-.3.7-.1.7.5 0 1.8-2.7 1.4-3.4-.4-.5-1.3-.4-1.4.7-.6.8.7 1.7.9 2 .5zm-3.7 7.6c-.7 1.1 2.2 2.3 3.6 1.4.7-.3.8-.1.4.6-.7 1-4.1.7-5.5-.5-.4-.3.8-2.4 1.5-2.4.3 0 .3.4 0 .9zM496 89c.6 1.1.8 2 .6 2-.3 0-1-.9-1.6-2-.6-1.1-.8-2-.6-2 .3 0 1 .9 1.6 2zm12-1c0 .5-.4 1-1 1-.5 0-1-.5-1-1 0-.6.5-1 1-1 .6 0 1 .4 1 1zm-.5 5c-.3.5-.1 1 .4 1 1.6 0 1.3 1.7-.3 2.3-1 .4-1.3.1-.9-.9.3-.7 0-1.4-.7-1.4-.6 0-.8-.5-.5-1 .3-.6 1.1-1 1.6-1 .6 0 .7.4.4 1zm1.5 20c0 .5-.2 1-.4 1-.3 0-.8-.5-1.1-1-.3-.6-.1-1 .4-1 .6 0 1.1.4 1.1 1zm-12 106.6c0 2-.7 1.7-2-.6-.9-1.6-.8-1.8.5-1.4.8.4 1.5 1.2 1.5 2zm9 18.4c0 .5-.7.7-1.5.4-.8-.4-1.5-.8-1.5-1 0-.2.7-.4 1.5-.4s1.5.4 1.5 1zm-2 2.4c0 .3-.4.8-1 1.1-.5.3-1 .1-1-.4 0-.6.5-1.1 1-1.1.6 0 1 .2 1 .4zm1 34.1c.7.9.8 1.5.2 1.5-.5 0-1.2-.7-1.6-1.5-.3-.8-.4-1.5-.2-1.5s.9.7 1.6 1.5zm-.3 10.7c-.3.8-.6.5-.6-.6-.1-1.1.2-1.7.5-1.3.3.3.4 1.2.1 1.9zm-16.6 9.5c1.3 1.5 1.2 1.5-.8.4-2.4-1.2-2.9-2.1-1.4-2.1.5 0 1.5.7 2.2 1.7z"/><path d="M491 78.8c0 1.2 1.9 2.6 2.6 1.9.2-.2-.2-1-1.1-1.7-.9-.8-1.5-.8-1.5-.2zM11 24.1c0 .5.5.7 1 .4.6-.3 1-.8 1-1.1 0-.2-.4-.4-1-.4-.5 0-1 .5-1 1.1zM5 69.5c-.9 1.8-1.9 2.3-3.2 1.9-1.6-.5-1.8.1-1.8 5.9 0 3.5.3 6.6.6 6.9 1.2 1.2 4.3-.5 4.1-2.3-.1-1.7-.2-1.7-2-.1-1.8 1.6-1.8 1.6-.7-1 .8-1.6 1.8-2.4 2.6-2.1.8.3 1.4 0 1.4-.6s-1.1-1.3-2.5-1.7c-2.8-.7-3.2-1.9-.9-2.8 2.3-.9 2.4-.8 1.7 1.1-.4 1-.2 1.4.4 1 1.5-.9 3.6 1.9 2.7 3.5-.6.9-.3.9 1-.1 1.2-1 1.4-1.6.5-2.1-.6-.4-.9-1.3-.5-1.9.4-.6.1-.9-.7-.5-1.8.6-2.9-4-1.4-5.5.6-.6.8-1.3.6-1.6-.3-.3-1.2.6-1.9 2zM138.7 74.2c-1 .5-2.7.8-3.8.5-1-.3-1.7-.1-1.3.4.3.5-.5.6-1.8.1s-3.4-.7-4.8-.5c-1.4.2-5.6.5-9.5.7-3.8.2-8.2.7-9.6 1.1-1.6.4-3 .2-3.3-.4-.4-.6-1.5-1.1-2.4-1.1-1.5 0-1.5.2-.2 1 .9.6 1 1 .3 1-.6 0-1.4-.4-1.7-.8-.3-.5-1.9-.7-3.6-.6-1.8.1-4.5-.2-6.1-.6-1.6-.5-2.9-.5-2.9-.1 0 .5-1.9.5-4.2 0-5.6-1.1-6-1.1-5.4 0 .4.5-1.3.9-3.6.9-2.4 0-5.4.4-6.8.9-1.4.6-3.1.8-3.8.5-.7-.2-1.2.2-1 .9.2.8-.2 1.3-.9 1.2-.6-.2-2.3.7-3.6 1.9-2.1 1.9-4.8 2.7-9.9 3.1-1 .1-1.8.4-1.8.7 0 .5-1.5.7-8.2 1.2-1.6.1-2.8.6-2.8 1s-.7.5-1.5.2c-.8-.4-1.5-.1-1.5.5s-.4 1-.9.8c-.4-.1-1.7.9-2.9 2.3-1.7 2.1-2.2 2.3-3.6 1.1-1.4-1.2-1.6-1.2-1 .3.5 1.2.2 1.5-1 1-1-.4-1.6-.1-1.6.9 0 .8.6 1.8 1.3 2 .7.4.6.6-.4.6-2 .1-3.4 3.1-1.6 3.2.7 0 .1.5-1.2 1-1.8.7-2.1 1.2-1.2 2.3 1.4 1.6.4 2.6-1.7 1.9-1.4-.5-1.5-.3-.4.8 1.5 1.6 1.6 3.3.1 2.3-.8-.4-.9.1-.5 1.7.6 2 .5 2.1-.4.6-.6-.9-1.6-1.7-2.2-1.7-.7 0-.7.4 0 1.2 1.6 2 1.2 6.8-.5 6.8-1.2 0-1.3.3-.4 1.4.8 1 .9 2.1.3 3.3-2.6 4.9-3.4 7.2-3.2 8.9.1 1 .1 2.1 0 2.4-.6 1.8-.3 6.7.4 6.2.5-.3.7.2.3 1.1-.3 1-.3 1.7.1 1.7.5 0 .7 1.6.6 3.5-.2 2.2.1 3.5.9 3.5.6 0 .1.7-1.2 1.6l-2.4 1.7 2.4 1.4c1.3.8 1.6 1.2.7.9-1.5-.4-1.6-.1-.8 1.9.9 2.3.6 2.8-1 2.7-.3 0-.7.8-.7 2-.1 1.3.3 1.8 1.3 1.4 1.8-.7 1.8.2-.1 2.1-1.9 1.9-1.1 3.1.9 1.4 1.3-1.1 1.3-.9.3 1.3-.7 1.4-1.6 2.6-2.2 2.6-.5 0-.4.4.4.9 1.3.8 1.3 1.2.1 2.8-1.2 1.5-1.2 1.6 0 .5 2.2-1.9 2.9-1.4 1.7 1.2-.7 1.4-1.4 2-1.7 1.5-.3-.5-.6.9-.5 3 0 2.2.3 3.7.8 3.4.4-.2.7.3.7 1.2 0 .9-.4 1.4-.9 1.1-1.1-.7-3.6 2.2-2.7 3.1.3.3.6.1.6-.5 0-.7.5-1.2 1.1-1.2.6 0 .9.7.6 1.4-.4 1.1-.1 1.3 1.1 1 1.5-.5 1.5-.4 0 .6-2.2 1.3-2.4 3.4-.3 2.6 1.2-.4 1.3-.2.3 1.4-1 1.5-1.5 1.7-2.7.7-.8-.7-.4.3.9 2.2 1.3 1.9 1.7 3.1.9 2.6-2.1-1.4-3.8-1.5-4.6-.3-.4.7-.1.8.7.3 1-.6 1.2-.4.7.9-.4.9-.3 1.5.2 1.2.5-.3 1.1.4 1.4 1.5.4 1.5-.3 3-2.3 4.9-1.6 1.5-3.1 2.5-3.4 2.2-.3-.3.3-1.2 1.4-1.9 1.9-1.4 1.9-4-.1-2.8-.5.4-.6-.2-.2-1.1.5-1.3.2-1.6-.8-1.2-2 .8-1.8-10 .2-11.3.8-.5.9-.9.3-.9-2.1 0-3.1 2.5-3.3 8.3-.2 4.7.2 6.2 1.6 7.3 1.6 1.3 1.7 1.4 0 .8-1.6-.6-1.7 3.5-1.7 76 0 68.5.2 76.7 1.6 77.3.8.3 1.3 1.2 1 2-.4.9-.2 1.1.6.7.8-.5.9-.2.5.9s.1 2 1.4 2.7c1.1.6 1.7 1.5 1.4 2-.3.5.4 1.4 1.5 2 1.1.6 2 1.8 2 2.6 0 .9.5 1.2 1.2.8.7-.5.9-.2.5.9-.3.9-.1 1.8.6 2.1.7.2.2.8-1 1.1-1.3.4-2 1.1-1.8 1.6.3.4 1.3.5 2.3.2 1.2-.4 1 0-.6 1.4-1.8 1.7-2 2.2-.7 2.7.8.3 1.5 1.2 1.5 2.1 0 1.8.5 1.9 3.3.3 2.1-1 2.1-1 .7.7-1.4 1.7-1.4 1.8.9.6 1.9-1.1 3.1-1 7 .4 2.5 1 5.3 2.4 6.1 3.1.8.7 2.9 1.5 4.5 1.8 3.1.6 5.8 3.2 4.9 4.7-.3.5.2.6 1 .3.9-.3 1.6-.2 1.6.4 0 .5.9 1.2 2 1.5 1.1.3 2 .1 2-.4 0-.6.8-.5 1.9.1 1.2.6 2.9.7 4.3.1 1.3-.4 2.8-.6 3.3-.4.6.2 2.2-.7 3.5-1.9 1.4-1.3 2.8-2.2 3.2-2 .5.1.8-.2.8-.8 0-.5.6-1 1.4-1 .7 0 3.4-2 5.9-4.5 5.5-5.3 6.8-9.2 6.9-21.3.1-6.2.6-9.7 1.9-12.3 1-2 1.5-4 1.1-4.4-.4-.5-.2-.5.5-.1.6.3 1.8-.2 2.5-1.1 1.6-2.2 3.1-2.6 8.8-2.6 5.5 0 9.4.9 9.8 2.3.2.5 1 1 1.7 1 1.9 0 6.8 10.5 6.7 14.1 0 1.7.8 5.8 1.9 9.1 1 3.3 1.9 6.6 1.9 7.3 0 .7.9 1.5 2.1 1.8 1.1.3 2.3 1.5 2.6 2.6.3 1.1.9 1.9 1.3 1.6.4-.3 1 .2 1.4 1 .3.8 1.2 1.5 2 1.5s1.6.5 1.8 1.1c.4 1.3 6.8 2.1 6.8 1 0-.4.7-.8 1.5-.8s1.2.4.9.9c-.4.5 0 .9.7.7 3.4-.4 5.1.2 4.6 1.6-.4.8-.2 1.7.4 2 .5.4.7 1.1.3 1.6-.6 1.1 9.4-4.7 11.7-6.7.8-.8 2.1-1.4 2.8-1.4 2.7 0 20.4-14.6 21.2-17.4.7-2.7.2-7.8-2.1-19.6-2.1-10.7-2.5-17.1-1.6-28 .4-4.1.9-11 1.2-15.2l.6-7.8-4.5-5c-6.4-7.1-9.2-12.3-12.3-23-2.3-8.3-2.6-10.6-2.1-19 .8-15.1 5.8-23 14.4-23 3.1 0 12.9 5.4 20.6 11.3 2.7 2 5.7 3.7 6.8 3.7 1 0 1.9.4 1.9.9 0 1.3 4 .9 4-.4.1-.5.7.5 1.5 2.3.8 1.8 1.9 3.1 2.5 2.7.5-.3 1 .1 1 .9 0 .9.4 1.6 1 1.6.9 0 .5-7.4-.6-10.9-.2-.7.1-2 .7-2.7.6-.8 1.3-3.1 1.6-5.1.3-2.1.9-4.2 1.4-4.8.5-.5.9-1.5.9-2.3 0-.8.9-2.7 2.1-4.3 1.1-1.6 1.6-2.9 1.1-2.9s-.7-1.2-.4-2.8c.5-2.5.4-2.6-1.3-1.2-1.7 1.4-1.7 1.3-.8-.5 1.5-2.9 2.5-11.7 1.3-11-1.2.7-4.3-5.9-4.5-9.5-.1-1.4.3-3.6.8-5 1-2.5 1.3-4 2.1-9.1.7-5.1 3.6-8.6 10.3-13 3.7-2.4 8.7-5.8 11-7.7 2.3-1.8 4.9-3.5 5.7-3.6.8-.1 3.5-2.4 6-5.1 2.5-2.6 4.6-4.5 4.6-4.1 0 1.6-7.3 10.1-11 12.8-4.8 3.5-5.2 4.6-.9 2.1 6.2-3.6 22.6-20.6 25.3-26.2 1.4-3 2.6-6.1 2.6-6.9 0-.9.7-1.1 1.9-.7 2.9.9 4.4-2.6 3.5-8.3-.3-2.6-1.1-5.3-1.6-5.9-.6-.7-.8-2-.4-2.8.3-.8.1-1.5-.4-1.5s-.7-.7-.3-1.6c.3-.8 1.5-1.4 2.7-1.2 2 .3 2.1.8 1.9 12.4-.1 6.6-.5 13.3-.8 15l-.6 2.9 1.8-2.8c1-1.5 2.3-2.7 3-2.7.7 0 1.3 1.2 1.3 2.7l.1 2.8 1.5-2.5c1.5-2.5 1.5-2.5.8 1-.3 1.9-1 3.9-1.5 4.4-.5.6-.9 1.9-.8 3 0 1.4.9.4 2.5-2.9 1.9-4 2.4-4.5 2.4-2.5s.2 2.2 1 1c1-1.7 5.7-2.4 6.5-.9.4.5.1.9-.4.9-.6 0-1.1.8-1.1 1.7 0 1.5.4 1.3 2-.7 1.2-1.5 2.3-2.1 2.7-1.5.5.6 1.8 1 3.1.9 1.7-.1 2.2.3 1.7 1.4-.6 1.7 2.1 5.2 4 5.2 1.5 0 2.9 2.8 2.6 5-.2 1.2.1 1.1 1.7-.3 2-1.8 2-1.8 2.7.3.4 1.3 0 3.1-1 4.6-.9 1.4-1.5 2.7-1.3 2.8.8.7 9.5 4.6 10.1 4.6.4 0 .7-.7.7-1.4 0-1.2.6-1.3 3-.5 1.7.6 3 1.5 3 1.9 0 1.2 6.9.3 8.8-1.2 1.1-.9 1.4-1 .8-.1-.4.7-.3 1.3.3 1.3.5 0 1.5-.8 2-1.8.6-.9 1.1-1.1 1.1-.5 0 1.6 3 1.8 3 .3 0-.6.6-1 1.3-.9.6.1 2-.1 2.9-.5 1-.5 2.2-.6 2.9-.4.6.2 3.1-1.7 5.6-4.2l4.5-4.5-.5-8.8c-.6-10.6-4-18.5-11.3-26-4.8-4.8-6.9-5.7-4-1.5 1.7 2.4 2.1 4.8.8 4.8-.5 0-1.4-1-2.1-2.3-.6-1.2-.9-1.4-.7-.5 1.1 3.9-3.3 2.6-9.2-2.6l-2.3-2 .3 4.9c.2 2.9-.1 5-.8 5.2-1.4.5-2.5-5.8-1.3-7.2.4-.6.4-1.7-.1-2.5-1.5-2.4-1.2-4 .8-3.4 1.2.4 1 0-.5-1.2-1.3-.9-2.3-2.1-2.3-2.7 0-1.3-6.8-7.6-8.4-7.9-5-.7-6.5-.4-5.5.8.9 1.1.6 1.4-1.4 1.4-1.4 0-3.2-.9-4-2-.9-1.3-3.3-2.2-7.8-2.9-7.3-1.1-20.8-.9-22.8.4-.8.5-1.2.4-.9-.1.4-.5-2.4-.9-6.2-.9-4.8 0-7.3-.5-8.7-1.6-1-.9-2.9-2-4.3-2.4-2.2-.7-2.3-.6-1.1.8.8 1 1.1 2.7.7 4.2-.9 3.4-2.7 3.2-2.4-.3.2-2-.1-2.7-1.4-2.7-2.2 0-5.3-3.1-5.3-5.3 0-1.9-4-2.3-8.2-.8-1.8.5-2.3.4-2.3-.8 0-.9-1.6-2.4-3.5-3.3-1.9-.9-3.5-2-3.5-2.5 0-.4-1.1-.8-2.5-.8-1.6 0-2.5-.6-2.5-1.5 0-.8-.7-1.5-1.5-1.5s-1.5-.5-1.5-1c0-.6-.5-1-1.1-1-.5 0-.7.5-.3 1.1.4.8 0 .8-1.5 0-1.2-.7-2.7-.9-3.3-.5-.7.4-.8.3-.4-.4.9-1.5.1-1.5-2.5-.2-1.3.8-1.9.7-1.9 0s-.5-.8-1.2-.3c-.7.4-4.3.8-7.9.9-3.6.1-7.6.5-8.8.9-1.3.4-2.7.3-3.3-.3-.6-.6-2.4-.6-4.6-.1-2.4.5-3.9.4-4.3-.3-.4-.7-.8-.6-1.1.2-.3 1-.9 1-2.5.2-1.1-.6-2.3-.8-2.7-.5-.9 1-7.6 1.5-7.6.6 0-.4-2.4-.8-5.3-.7-2.8 0-5.9-.3-6.8-.7-.9-.5-2.1-.3-2.7.3-.9.9-1.2.9-1.2.1s-1.5-1.1-4-1c-2.2.2-4.1-.1-4.2-.5-.2-.4-1.1-.2-2.1.4zM239.1 96c.5 0 .8.5.7 1.1-.2.6.3 1.4 1 1.6.6.3 1.2-.3 1.2-1.2 0-1.4.3-1.5 1.3-.6.8.6 1.7.7 2.2.3.4-.4.5 0 .3.8-.3.8-1.1 1.4-1.8 1.2-.7-.2-1.7.2-2.1.9-.5.9-1.1.8-2.4-.4-.9-.9-2.3-2-3.1-2.5-1.1-.6-1.3-1.6-.8-3.8l.7-2.9 1 2.8c.5 1.5 1.3 2.7 1.8 2.7zm-19.9 5.8c-.7 3.2-.8 3.2-3 1.6l-2.3-1.6 2.2-2.4c2.8-3 4-2 3.1 2.4zm10.9 2c-.5 1.7-.6 3.3-.3 3.7.4.3 0 1-.7 1.4-1.7 1.1-2.7 15.6-1.2 16.6 1.1.6 1.5-.6 1.2-3.5-.2-1.3-.1-1.3.9 0 .9 1.3 1.1 1.3 2 0 .8-1.2 1-1.2 1 .5 0 1.6.2 1.7 1 .5.6-1 .4-2-.6-3.1s-1.2-2.6-.7-5c.6-3.2.5-3.3-1.3-1.9-1.5 1.1-1.6 1.1-.6 0 .6-.8 1.2-2.8 1.2-4.5 0-3.5 1.6-5.6 3.6-4.8.9.3 1.2 1.3.8 2.9-.4 1.5-.2 2.4.5 2.4.6 0 1.1.6 1.1 1.2 0 .7.8 2.6 1.7 4.3 1 1.9 1.6 5.3 1.6 9.2 0 4.5.4 6.3 1.4 6.5 1 .2.8.8-.8 2.2l-2.2 1.8.5-5c.5-5.3-.4-7.4-2.9-6.5-1.2.5-1.2.7-.1 1.4 1.1.7 1 1.1-.2 2-1 .7-1.1 1.2-.4 1.5 1.4.6.6 5-1.2 6.5-1.1.9-1.4.6-1.4-2 0-1.9-.5-3.1-1.4-3.1-.9 0-1.2-.8-.8-2.5.2-1.5 0-2.5-.7-2.5-1 0-1.7 6.8-1.3 12.5.2 2 .2 2-1.3.1-1.4-1.8-2-1.5-1.6.7.1.5-.4.5-1 .2-.6-.4-.9-1.8-.6-3.1.2-1.3.1-2.4-.3-2.4-1.3 0-2.1-3.2-1.1-4.4 1.1-1.3.3-6.6-1.1-6.6-.5 0-.6-1-.3-2.1.5-1.6.4-2-.6-1.5-.8.4-.6.1.4-.7 2.1-1.7 2.2-3.1.2-2.3-2.3.8-1.8-1.9.8-5.1 1.3-1.5 2.7-4.1 3.1-5.8.4-1.6 1.3-3.6 1.9-4.3 1.7-2.1 2.8.9 1.8 4.6zm-30.6 5.4c-3.1 6.1-5.1 8.6-3.6 4.5 1.4-3.6 1.4-4 0-3.1-.8.5-.8.1 0-1.4s.7-2.3-.4-3.2c-2.3-1.9-1.8-3.1.9-2.4 1.8.4 2.5.1 3-1.8l.7-2.3 1.1 2.2c.9 1.8.5 3.2-1.7 7.5zm88.7-2.1c-.1 2.3-.7 4.9-1.6 5.7-1.3 1.3-1.4.7-.9-4.9.3-4.1.1-5.9-.5-5.1-.7 1.1-1 1.1-1.5-.3-.4-.9-.3-1.3.3-1 .6.3 1 0 1-.7 0-.8.5-.7 1.6.4 1 1 1.6 3.2 1.6 5.9zm-40.3-2.9c.5 1.3.6 2.7.3 3.2-.6 1-2-1.9-2.1-4.2-.1-2 .9-1.4 1.8 1zm31.3 4.2c.7 5.1 1.7 7.2 1.9 4 .1-1.4.3-1.3.8.6.4 1.6 1.4 2.5 2.6 2.5 1.1 0 2 .6 1.9 1.3-.2 2.9-.5 3.3-1.4 2.7-1.5-.9-5.2 1.4-4.4 2.8.4.7-.3.3-1.5-.8-1.5-1.3-2-2.6-1.7-4.1.7-2.5-1.8-8-4.2-9.3-1.5-.8-1.4-1.2.8-3 3.4-2.8 4.4-2.2 5.2 3.3zm-76.3.2c-.6 1.6-1.3 2.4-1.6 1.7-.5-1.3 1.6-5.8 2.3-5 .3.2-.1 1.7-.7 3.3zm65.7-1.4c-1.4 4.6-1.5 8.2-.5 9.5.9 1 .7 1.3-.9 1.3-1.2 0-2.3.9-2.7 2-.4 1.1-1 1.8-1.5 1.5-.5-.3-.7 1.2-.4 3.2.3 2.7.2 3.2-.4 1.8-.8-1.7-1.1-1.5-2.2 2-.7 2.2-1.8 5.1-2.6 6.5-1.6 3.3-2.8 6.3-2.6 7.2.1.4-.5.5-1.4.1-.9-.3-2 0-2.5.8-1.3 2.1-1.1 3.3.4 2.3.7-.5-.2.4-2 1.9-1.8 1.6-3.3 3.4-3.3 4-.1 1.2-1.7 2.5-7.4 6.2l-2.8 1.9 2.2-4.5c1.3-2.4 4-6.8 6.1-9.8 2.2-3 3.9-6 3.9-6.6 0-.7 1.1-1.3 2.5-1.3 2.1 0 2.5.4 2 2.2-.5 1.8-.5 1.9.5.4.6-1 1.3-3 1.5-4.5.2-1.6 1.1-4.3 2-6 .9-1.8 1.7-4.6 1.7-6.3.1-1.6.4-3 .8-3 .3 0 .5-1.5.4-3.2-.1-1.8.2-4.1.8-5.1.7-1.4.7-1.7-.1-1.3-1.4.9-1.4-.4-.1-2.4.8-1.3 1.1-1.1 1.6.7.4 1.3 1 2 1.6 1.7.5-.3.6-1.4.3-2.5-.4-1.1-.2-1.9.4-1.9.6 0 1.1.8 1.2 1.7 0 1.4.2 1.3.9-.5.5-1.2 1.5-2.2 2.1-2.2.7 0 .9.8.5 2.2zm-22.6 3.5c0 1-.4 2.5-.9 3.3-.6.8-.7 1.8-.4 2.3.3.5.9.3 1.4-.4 1.6-2.7 1.4-.3-.3 3.1s-1.8 3.4-1.8.8c0-1.4-.5-2.8-1.1-3-.9-.3-.8-1.4.2-4.1 1.4-3.9 2.9-4.9 2.9-2zm-25.9 8.2c.1 1.8-.5 3.7-1.1 4.1-.7.5-1 1.5-.7 2.4.4.9.2 1.6-.4 1.6-1.3 0-3.1-5-2.6-7.2.3-1 .1-1.6-.4-1.2-1.8 1-.9-2.7 1.3-5.7l2.3-3 .8 2.8c.4 1.5.8 4.3.8 6.2zm101.4-7.5c2.6 1.1 3.5 2.1 3.5 3.8-.1 2.2-.2 2.2-1.6-.5-.9-1.6-1.8-2.7-2.1-2.4-.2.3 0 1.4.6 2.5 1.5 2.8 1.4 7.1-.2 8.6-1.7 1.7-3.7.9-3.7-1.5 0-1-.4-1.9-1-1.9-.9 0-4-5.1-4-6.6 0-.3.7 0 1.7.7 1.5 1.3 1.5 1.2.5-.7-1.9-3.6.5-4.4 6.3-2zM213 112.5c0 .8-.4 1.5-1 1.5-.5 0-1-.7-1-1.5s.5-1.5 1-1.5c.6 0 1 .7 1 1.5zm-29.3 1c1.1 1.1 1.4 3.1 1.1 7-.2 4.3 0 5.4 1 5 .8-.3.4.7-.7 2.4-2.2 3-2.8 5.7-1.1 4.6.5-.3 0 1.3-1.3 3.7l-2.2 4.4c0 .1-1 .5-2.2.8-1.9.6-2.2.4-1.7-1.1.3-1-.2-.5-1.2 1.2-.9 1.6-2.8 4-4 5.2l-2.4 2.2v-2.7c-.1-2.4-.2-2.5-1.1-.9-.6 1-.7 3.2-.4 4.9.5 2.1.4 2.8-.4 2.4-.6-.4-1.1 0-1.2 1.1 0 1.4-.2 1.3-1-.5-1.4-3.7.6-10.7 5-17.7 3.1-4.8 5-6.9 5.7-6.2.3.2-.3 1.3-1.3 2.2-1.2 1.3-1.3 1.7-.3 1.3 2.6-.8 5.7-8.1 5.2-12.2-.4-3.2 1.2-8.6 2.5-8.6.3 0 1.1.7 2 1.5zm69.5 3.7c-.3 1.4-.2 1.9.6 1.4s1.2.3 1.2 2.3c0 3.1-1.4 4.9-2.5 3.1-.9-1.5-3.8.9-3.1 2.5.2.7 0 1.8-.5 2.6-2 3.2-.8-3.1 1.7-8.5 2.7-5.9 3.6-7.1 2.6-3.4zm58.8-.7c.7.8.8 1.5.2 1.5-.5 0-1.5-.7-2.2-1.5-.7-.8-.8-1.5-.2-1.5.5 0 1.5.7 2.2 1.5zm-95 14.3c0 .2-.7-.1-1.5-.8-1.3-1.1-1.5-.7-1.7 2.6 0 2.2-.1 4.5-.1 5.1.1.7-.3 1.3-.7 1.3-.4 0-.7-2.8-.6-6.3 0-3.4-.3-8.2-.7-10.7l-.8-4.5 3.1 6.4c1.6 3.5 3 6.6 3 6.9zm-15.4-8.3c.3 1.6 1.1 3.5 1.6 4.2.6.8.6 1.8-.2 3-1 1.7-1.1 1.6-.7-.3.3-1.3-.3-2.5-1.4-3.3-1.6-.9-1.9-.8-2 .6 0 1-.8 3.8-1.8 6.2l-1.8 4.4.2-7.4c.3-8.7.9-10.5 3.5-10.5 1.3 0 2.1.9 2.6 3.1zm5.3 1.2c0 6.4-.8 10.3-2.1 10.3-.6 0-.7-1.1-.3-2.8.7-2.5 1-4.6 1.3-10 .3-4.1 1.1-2.2 1.1 2.5zm-16.7-1.5c-.7.7-1.2.8-1.2.2 0-1.4 1.2-2.6 1.9-1.9.2.3-.1 1.1-.7 1.7zm56.8 1.3c0 .8-.4 1.5-1 1.5-.5 0-.7-.7-.4-1.5.4-.8.8-1.5 1-1.5.2 0 .4.7.4 1.5zm-81.5 4.2c-.4 1-1.1 3-1.5 4.5-.5 1.5-1.7 4.5-2.8 6.5-1.1 2.1-2.5 5.2-3.2 7-.6 1.7-2 3.3-3.1 3.6-2.2.6-2.3.3-.8-2.4.6-1.1.9-2.5.6-3.2-.5-1.6-3.7 5.1-3.8 8.2-.1 1.7-.3 2-.6.8-.5-1.8-2.3-2.4-2.3-.7 0 1.6-4.4 2.9-5.3 1.6-.5-.6-.6-.2-.2 1 .3 1.3-.4 4.1-2 7.2-1.4 2.7-2.5 5.4-2.5 6 0 .5-1 .9-2.3.9-2 0-2.3-.4-1.9-2.8.2-1.6 0-2.9-.6-2.9s-.5-1.2.2-3.3c1.4-3.9 3.5-7.6 3.6-6.1 0 .6-.3 1.4-.7 1.8-1 1-1.1 5.6-.2 5.6.4 0 1.1-2.6 1.5-5.8.6-5.2 2.7-11.2 4-11.2.2 0-.3 1.4-1.1 3.1-.9 1.7-1.4 3.3-1.2 3.6.3.3 1.9-2.4 3.5-6 2.9-6.1 5.2-9.2 5.2-6.7 0 .6.5.8 1 .5.6-.3 1-.1 1 .5s.5.8 1 .5c1.4-.9 1.2.2-.6 3-.9 1.3-1.4 3-1.2 3.7.3.7 1.4-.9 2.6-3.6 1.4-3.1 2.7-4.6 3.5-4.3.9.3 2-.9 3.2-3.5 1.9-4.5 5.3-8.8 6.8-8.8.5 0 .6.8.2 1.7zm80.4 1c0 2.5-.1 2.6-.9.8-1.2-2.7-1.2-3.5 0-3.5.6 0 1 1.2.9 2.7zm-54.3 8.8c-.9.9-1.6 2.2-1.6 3 0 2-3.9 6.3-4.1 4.5-.1-.8-.2-2.2-.3-3-.2-2 1.4-4.1 2.6-3.4.5.3 1.6-.4 2.5-1.6.8-1.2 1.7-1.9 2-1.6.3.3-.2 1.2-1.1 2.1zm6.8 5.1c-1.4 2.7-3.3 5.6-4.1 6.4-1.3 1.3-1.3 1.1-.7-1.5.7-2.7 6.4-10.8 7.2-10 .2.1-.9 2.5-2.4 5.1zm3.9 1.2c-.9 2.9-2 5.2-2.5 5.2-1.1 0-1.1-.4 1.4-6 2.7-6.3 3.2-5.9 1.1.8zm-11.1 3.4c-1.2 2.5-2.1 3.5-2.1 2.5-.1-1.9 3-8 3.7-7.3.2.2-.5 2.4-1.6 4.8zm-14.7-1.2c-.4 1.2-.9 1.9-1.2 1.7-.3-.3-.2-1.5.2-2.7.4-1.2.9-1.9 1.2-1.7.3.3.2 1.5-.2 2.7zm32.8-.5c-.3.9-.8 1.4-1 1.1-.3-.3-.2-.9.2-1.5.9-1.6 1.5-1.3.8.4zM135 172.4c0 .3-.4.8-1 1.1-.5.3-1 .1-1-.4 0-.6.5-1.1 1-1.1.6 0 1 .2 1 .4z"/><path d="M233.5 118c-.3.5-.1 1 .4 1 .6 0 1.1-.5 1.1-1 0-.6-.2-1-.4-1-.3 0-.8.4-1.1 1zM227 129c1.3 2.3 2 2.6 2 .6 0-.8-.7-1.6-1.5-2-1.3-.4-1.4-.2-.5 1.4zM178.7 127.7c-1.1 1-.8 4.3.3 4.3.9 0 3-3.1 3-4.4 0-.8-2.5-.7-3.3.1zM176.3 134.5c-.8.9-.9 1.6-.3 2 .6.3 1.3-.1 1.6-1 .9-2.1.2-2.6-1.3-1zM172.6 141.5c-.9 2.6-.7 3.2.5 1.2.6-1 .9-2.1.6-2.3-.2-.3-.7.2-1.1 1.1zM252 120.9c0 1.1.5 2.3 1 2.6.6.3 1-.3 1-1.4 0-1.1-.4-2.3-1-2.6-.5-.3-1 .3-1 1.4zM6.6 82.2c.3.5 1 .6 1.5.3 1.3-.9 1.1-1.2-.6-1.2-.8 0-1.2.4-.9.9zM2.8 85.7c-2.5.4-2.6.6-2.6 6.6.1 3.4.3 5.2.5 4 .2-1.2 1.3-2.5 2.4-2.8 1-.4 1.9-1.1 1.9-1.6 0-.6.5-.7 1.2-.3.7.5.8.3.4-.5-.6-.9-1.2-.9-2.5.3-2.4 2.2-2.6 2-2.6-1.4 0-2.6.4-3 2.8-3 1.5 0 2.7-.5 2.7-1 0-.6-.3-.9-.7-.9-.5.1-2 .4-3.5.6zM10 90.4c0 .2.7.6 1.5 1 .8.3 1.5.1 1.5-.4 0-.6-.7-1-1.5-1s-1.5.2-1.5.4zM16.7 95.4c-.6 1.5 1.9 3 3.4 2 .6-.3.5-1.1-.2-2-1.5-1.8-2.5-1.8-3.2 0zM7 96c0 .6.7 1 1.5 1s1.5-.2 1.5-.4-.7-.6-1.5-1c-.8-.3-1.5-.1-1.5.4zM1 99.4c0 .2.7.7 1.6 1 .8.3 1.2.2.9-.4-.6-1-2.5-1.4-2.5-.6zM0 105.5c0 .8.2 1.5.4 1.5s.6-.7 1-1.5c.3-.8.1-1.5-.4-1.5-.6 0-1 .7-1 1.5zM272.2 144.8c-.6 2.9-2.4 7.6-3.8 10.5-1.4 2.8-2.2 4.7-1.6 4.2 2.7-2.6 7.3-13.7 7-16.7-.3-3-.4-2.9-1.6 2zM260.4 167.2l-1.9 2.3 2.3-1.9c1.2-1.1 2.2-2.1 2.2-2.3 0-.8-.8-.2-2.6 1.9zM3.6 174.7c-.6 1.4-.5 1.5.5.6.7-.7 1-1.5.7-1.8-.3-.3-.9.2-1.2 1.2zM0 180.1c0 .5.5.7 1 .4.5-.3 1-.8 1-1.1 0-.2-.4-.4-1-.4-.5 0-1 .5-1 1.1zM4.2 184.6c1 1 2 1.5 2.4 1.2.3-.4-.5-1.2-1.8-1.8-2.2-1.2-2.2-1.2-.6.6zM.6 186.3c.3 1 .9 1.5 1.2 1.2.3-.3 0-1.1-.7-1.8-1-.9-1.1-.8-.5.6zM5.6 192.5c-1.1.8-1.5 1.5-.9 1.5s1.6-.7 2.3-1.5c1.6-1.9 1.1-1.9-1.4 0zM307.9 191.4c-.3.3-3.3.6-6.7.8-3.4.1-5.6.5-5 .9.8.5.3 1.1-1.3 1.8-1.3.5-3.8 1.5-5.6 2.2-1.7.7-2.9 1.7-2.6 2.2.3.4-.4 1.1-1.6 1.4-1.2.3-2.1 1.2-2.1 1.9 0 .8-.4 1.4-1 1.4-.5 0-1 .5-1 1.1 0 .5.5.7 1.2.3.7-.4.8-.3.4.4-.9 1.5-3.6 1.6-3.6.2 0-.6-.4-1-.9-1-.6 0-.9.8-.8 1.9.1 1.6.7 1.8 4.2 1.3 2.2-.2 5.6-1.1 7.5-2 2.8-1.2 3.1-1.6 1.6-1.9-1-.3-2.2.1-2.7.9-.6.9-.9.7-.9-.9 0-2 .5-2.3 3.3-2 2.6.2 3.3.7 3.5 2.5.1 1.3-.2 2-.8 1.7-.9-.6-5.9 2.7-10.4 6.7-1.9 1.7-3.1 2.2-4.8 1.9-.5 0-.8.5-.8 1.2s-1 1.4-2.2 1.4c-1.3.1-2.4.7-2.6 1.3-.5 1.5-6.1 4.2-7.2 3.5-.6-.3-1-.2-1 .3 0 1-3.3 2.4-5.9 2.6-1.8.1-3.2 4.9-2 6.7.5.8.9 1 .9.5 0-.4 1.5.3 3.4 1.7 2 1.6 4.1 2.4 5.3 2.1 1.1-.3 2.7.1 3.6 1 .8.9 2.5 1.6 3.6 1.6s2.3.4 2.6 1c.3.5 2.1 1 3.8 1 1.8 0 4.6.8 6.2 1.7 2.2 1.2 5.7 1.6 13.8 1.7 10.7.1 10.9 0 12.8-2.6 1.1-1.5 4.5-4.1 7.5-5.8 2.9-1.7 5.4-3.6 5.4-4.1 0-1.8 3.5-4.4 5.6-4.1 4.5.6 4.7-7.4.3-12.2-1-1-1.6-2.2-1.4-2.6.3-.5-.2-1.1-1.1-1.4-1-.4-1.4-1.2-1-2.2.4-1.1.2-1.5-.7-1.1-.7.3-3-.4-5.2-1.4-2.1-1-4.4-1.9-5.1-1.9-.6 0-2.5-.7-4-1.5-3.5-1.8-5.8-1.9-8.6-.4-1.6.8-2.2.8-2.9-.2-.7-1.2-1-1.2-2.1 0-1 1-1 1.2 0 .7.6-.4 1.2-.3 1.2.2 0 1.6-3.3 2.4-4.1 1-1.7-2.7 5.9-6.6 10.5-5.4 1.5.4 2.8.1 3.3-.6 1.3-2.1 4.6-3.5 7.1-3.2 1.2.2 2.2 0 2.2-.5 0-1.1-1.8-2.4-4-2.8-.8-.1-2.6-.5-4-.8-1.4-.4-2.8-.4-3.1-.1zm-8.5 31.8c2.5 4.9 2.2 5.1-5.1 4.3-10.4-1.1-11.3-1.7-6.1-4.2 8.3-4.1 9.2-4.1 11.2-.1zM367.3 194c-2.8 1.1-3 3-.4 3 1 0 2.1.7 2.5 1.5.3.9 1.8 1.5 3.6 1.5 2.6 0 3-.4 3-2.6 0-2.3-.3-2.6-2.5-2.2-1.7.4-2.5.1-2.5-.8 0-1.6-.6-1.6-3.7-.4zM2.5 201c.3.5 1.1 1 1.6 1 .6 0 .7-.5.4-1-.3-.6-1.1-1-1.6-1-.6 0-.7.4-.4 1zM270 210c0 .5.5 1 1 1 .6 0 1-.5 1-1 0-.6-.4-1-1-1-.5 0-1 .4-1 1z"/><path d="M274.7 210.5c.3.8.9 1.2 1.4.9 1.2-.7 1.1-1.1-.5-1.7-1-.4-1.3-.1-.9.8zM279 210c0 .5.7 1 1.6 1 .8 0 1.2-.5.9-1-.3-.6-1-1-1.6-1-.5 0-.9.4-.9 1zM362.5 210.7c-4.7.9-9.5 2.7-9.5 3.6 0 .5-.6.4-1.4-.2-1.1-.9-1.5-.8-2 .5-.3.8-.6 1.9-.6 2.3 0 1.1 12.8 20.1 13.6 20.2.3 0 1.2-1.1 2-2.5 1.1-2.2 1.1-2.6-.2-2.6-.8 0-1.4-.5-1.4-1.1 0-.6.7-.9 1.5-.5 2 .7 4.6-.4 3.9-1.6-.4-.6 0-1.4.7-1.9.8-.5 1.7-.3 2.1.4.5.8.8.6.8-.6 0-.9.4-1.7.9-1.7s1.4-1.3 2.1-2.9c2.6-6.3-4.7-12.9-12.5-11.4zm1.8 13.2c.9 1.6 1.7 3.4 1.7 4 0 2.5-9.4.1-10.4-2.6-.9-2.2 1.2-4.3 4.3-4.3 1.9 0 3.2.9 4.4 2.9zM246 223.5c0 .8.5 1.5 1 1.5.6 0 1-.7 1-1.5s-.4-1.5-1-1.5c-.5 0-1 .7-1 1.5zM162.7 242.8c-3.3 3.6-3.7 20.6-.8 30.6.8 2.6.9 2 1.1-3.9.2-10.6 2.1-18.8 4.8-20.1 1.2-.6 1.9-1.3 1.6-1.6-.3-.4.3-.9 1.4-1.2 1.4-.5 1.8-1.3 1.5-2.6-.3-1.1-.8-2-1.2-2.1-.3 0-2-.2-3.7-.4-2.1-.3-3.7.1-4.7 1.3zM176.4 249.1c-1.7 1.9-1.7 2.3-.3 4.7 1.1 2.1 2.4 2.8 5.2 3 5.5.5 6-3.3 1.1-8.2-2.1-2.1-3.7-2-6 .5zM328.1 260.3c-2.2 3.6-1.9 6.6.8 10 2.9 3.6 9.3 9.2 11.2 9.9 1 .4 1.9 1.4 1.9 2.2 0 .7 1.1 1.7 2.5 2 1.4.4 2.4 1 2.1 1.5-.6.9 3 .7 6.4-.4 1.3-.4 1.9-1.2 1.6-2.1-.3-.8-.1-1.4.4-1.4 2 0 1 4.1-1.2 5-2.2.8-2.2.9.4.9 1.7.1 2.9.8 3.3 2 .7 2.2 4.9 2.5 6.6.4.9-1 .9-2 0-3.9-.6-1.5-.7-2.3-.1-1.9.5.3 1 .1 1-.4 0-.6-.4-1.1-1-1.1-.5 0-1-.9-1-1.9 0-2.6-1.8-3.7-2.7-1.6-.3 1 0 2.1.8 2.5.7.5 1 1.3.5 1.7-.5.4-1.1.2-1.3-.5-.3-.6-.9-1-1.3-.7-.5.3-.6-1.1-.3-3.1.5-2.8.2-3.9-1-4.6-2.3-1.3-2.1-2.5.6-3.2 2.2-.6 2.2-.7.3-2.1-1.2-.9-4.2-1.5-7.5-1.5-4.5 0-6 .4-8.2 2.6-2 1.9-3.2 2.4-5.3 1.8-5.1-1.2-8.2-8.6-5.6-13.5 1.9-3.4-1.6-2.2-3.9 1.4zM438 258c0 .5.5 1 1 1 .6 0 1-.5 1-1 0-.6-.4-1-1-1-.5 0-1 .4-1 1zM185.4 260.9c-1.7 1.4-4 3.3-5.2 4.1-1.2.8-2.2 1.8-2.2 2.2 0 1.9-4.6 5.8-6.5 5.6-1.5-.2-2.1.3-2.3 2.3-.2 1.9.7 3.5 3.8 6.2 4.3 3.9 5.9 4.4 7.8 2.5.8-.8 1.2-.9 1.2-.1 0 .6.8.9 1.8.6 1-.2 4.5.4 7.7 1.5s6.4 1.8 7.1 1.5c2.6-1 2.3-3.5-1.1-7.1-2.6-3-3.6-5.2-4.4-9.9-.5-3.3-1.8-7.4-2.8-9l-1.9-3.1-3 2.7zM163.6 279.3c.3 1 .9 1.5 1.2 1.2.3-.3 0-1.1-.7-1.8-1-.9-1.1-.8-.5.6zM165 283c0 2.3 12.6 14 15 14 3.4 0 1.8-2.2-3.6-5.2-2.7-1.5-6.4-4.3-8.1-6.4-1.8-2.1-3.3-3.1-3.3-2.4zM256 285.6c0 .8.5 1.2 1 .9.6-.4.8-1.1.5-1.6-.9-1.4-1.5-1.1-1.5.7zM478 287.4c0 .2.7.9 1.5 1.6.9.7 1.5.8 1.5.2 0-.5-.7-1.2-1.5-1.6-.8-.3-1.5-.4-1.5-.2zM504.6 291.8c-.3.5.1.9.9.9s1.2-.4.9-.9c-.3-.4-.7-.8-.9-.8-.2 0-.6.4-.9.8zM205.1 299.3c-.1 3.2-.6 6.7-1.1 7.8-1.7 3.1-.1 4.3 2.1 1.5s2.4-7.8.4-12.1c-1.3-3-1.3-2.9-1.4 2.8zM495.4 294.8c.6 1.1-3.1 3.8-4.6 3.4-.5-.1-.8.2-.8.8 0 .5-.7 1-1.5 1s-1.5-.4-1.5-.8c0-.5-.7-.9-1.6-.9-1 0-.7.7 1.2 2.4 1.9 1.6 3.1 2 3.9 1.3.6-.5 1.6-.6 2-.2.5.4.5.2.2-.5-.9-1.4 1.9-4.3 3.6-3.9.7.1.9.1.4-.1-.4-.3-.5-.9-.2-1.3.3-.5 0-1.2-.6-1.6-.8-.4-.9-.3-.5.4zM354.6 298.8c-.4 1.3-1.5 1.7-4.3 1.6-2.4-.2-6.4.9-10.6 2.7-4.5 2-8.1 2.9-11 2.8-6-.3-14.8 4.7-11.7 6.6.6.4 1.8-.1 2.6-1.1 1.3-1.5 1.5-1.6 1.1-.3-.4 1.2-.1 1.5 1.3 1.2 1-.3 2.1 0 2.4.6.8 1.2 3.7.4 5.3-1.6.9-1.2 3.2-1.5 10-1.3 4.8.2 10.6.3 12.8.4 2.2 0 6-.9 8.5-2 4.9-2.3 8.3-2.4 11.8-.5 1.8 1 2.2.9 2.2-.4 0-.9-.8-1.8-1.7-2.2-1-.3-2.6-1.4-3.6-2.5-1.1-1.1-3.2-1.8-5.5-1.8-2.1 0-4.4-.6-5.1-1.3-1.1-1-1.3-1-.7 0 .5.9 0 1.3-1.5 1.3-1.8 0-2-.3-1.1-1.2 1.4-1.4 1.6-2.8.3-2.8-.5 0-1.2.8-1.5 1.8zM490.5 305c-.3.5-.2 1 .4 1 .5 0 1.3-.5 1.6-1 .3-.6.2-1-.4-1-.5 0-1.3.4-1.6 1zM487.5 307c.3.5.8 1 1.1 1 .2 0 .4-.5.4-1 0-.6-.5-1-1.1-1-.5 0-.7.4-.4 1zM484.1 311.6c-.9 2-.9 2.4.1 1.8 1-.5 1-.4.1.6-1.4 1.5-3.6.3-2.9-1.6.3-.7 0-1.6-.6-2-.6-.4-.8-.3-.4.4.8 1.4-3.2 4.2-5 3.5-.8-.3-1.4 0-1.4.6s-1.3 1.1-2.8 1.1c-1.6 0-3.2.3-3.6.7-.4.5-2.9.8-5.4.9-4.6.1-7.1.7-10.3 2.4-.8.4-2.2.4-3.1-.1-1-.6-2-.4-2.8.6-.6.7-1.7 1.2-2.5.9-.7-.3-1.6-.1-2 .5-.3.6-1.1 1.1-1.6 1.1-.6 0-.7-.4-.4-1 .8-1.3-2.8 0-3.7 1.4-1.2 1.8 2.4 4.5 4.6 3.4 1.7-.9 1.8-.7 1.2 1.8-.9 3.3-.9 3.4-.7 5.2 0 .7.5 1.1 1 .8.5-.3 1.1.1 1.5.9.3.8 0 1.7-.6 2.1-.7.4-.8.3-.4-.4s.2-1.2-.3-1.2c-1.7 0-1.3 1.8.7 2.9.9.6 1.3 1.1.9 1.1s-.2 1 .5 2.2c.6 1.3 1.3 3 1.4 3.8.1.8.5 2.4.9 3.4.6 1.4.5 1.7-.4 1.1-1-.6-1-.2 0 1.6.7 1.3 1.2 2.7 1.1 3.1-.5 2-1 26-.6 27.3.4.8 1 1.2 1.5.9.5-.3.6.2.2 1.1-.3 1-.2 2 .3 2.4.5.3 1.7 2.2 2.7 4.1 1 2 3.1 4.1 4.9 4.9 1.7.8 4.1 2.6 5.4 4 1.3 1.4 3.7 4.2 5.3 6.1 1.7 1.9 3.1 3.9 3.1 4.4 0 1.2 2.6 3.1 7.4 5.7 6.1 3.3 12.4 9.7 15.4 15.8 1.5 3.1 2.7 5.8 2.8 6.1 0 .3.4 2.1.7 4 1.1 5.6 1.5 12.8.9 13.5-.3.3-.8 1.8-1 3.3-.2 1.5-.7 2.9-1.2 3.2-.5.3-1.8 2.7-2.9 5.3-1.1 2.6-2.4 4.6-2.8 4.5-1.9-.4-6.5 2.4-7 4.1-.3 1.1-1.6 2.2-2.9 2.5-2.7.7-3.1 2.1-1 2.9.8.3 2.9 2.7 4.6 5.3 1.8 2.5 5 6.2 7.2 8.2 2.6 2.3 3.8 4.2 3.6 5.6-.3 2-1.5 2.5-2 .8-.1-.4-1.5-1.8-3.1-3.1-1.5-1.3-3.4-3.6-4.2-5.2-.8-1.5-2.9-3.6-4.5-4.6-1.7-1-2.8-2.3-2.6-3 .3-.6-.5-1.5-1.7-1.9-1.1-.4-6.7-5.1-12.3-10.5-5.6-5.3-11.5-10.4-13.1-11.3-1.6-.8-3.5-2.2-4.2-3-.7-.9-1.7-1.3-2.2-1-.5.3-.9 0-.9-.5 0-.6-.6-1.1-1.4-1.1-.7 0-2.6-1.2-4.2-2.8-1.6-1.5-4.3-3.6-5.8-4.7-1.6-1.1-5-3.8-7.6-6-2.6-2.2-5.6-4.7-6.6-5.6-1.1-.8-7.4-3.2-13.9-5.3-12.9-4.1-15.1-5-32-13.1-6-2.9-12.1-5.6-13.5-6-3.5-1.1-12.2-5.5-14.1-7.1-1.4-1.3-1.7-.8-2.2 5.3-.4 3.8-.7 9.1-.7 11.9 0 5.9-2.9 18-6.1 25.5-1.3 2.9-4.7 7.9-7.6 11.3-4.7 5.5-5.8 7.4-5.4 9.8 0 .5-.4.8-1.1.8-.6 0-.9.3-.5.6.9.9-5.4 6.4-9.3 8.1-1.9.8-6 2.7-9 4.1-7 3.4-17.3 3.8-32 1.2-16.7-3-22.7-4.8-35.6-11-15.2-7.2-24.8-13.3-44.2-27.9-22.8-17.3-34.3-24.9-50.1-33.3-1.9-1-3.9-2.2-4.5-2.8-1.3-1.3-4.9-1.3-6.2 0-.6.6-6.4 3-12.9 5.5s-13.9 5.8-16.4 7.3c-9.1 5.5-17.9 10.3-28.8 15.8-9.7 4.7-11.3 5.8-11.3 7.9 0 1.8-.9 2.9-3.2 4.1-1.8.9-4.1 2.3-5.1 3.2-1.6 1.4-1.7 1.4-1.2 0 .5-1.2 0-1.5-2.6-1.2-4 .5-10.9 3.5-10.9 4.7 0 .5-.7.6-1.6.3-1.2-.5-1.5-.2-1 .9.3.9.2 1.3-.3 1-.6-.3-1.4.3-2 1.2-.6 1-1.1 1.4-1.1 1 0-.4-.8-.3-1.8.2-1.4.7-1.7 1.8-1.4 4.5.2 2 .8 3.6 1.3 3.6 2.3 0 .3 2.9-7.1 10.4-8.7 8.9-22 27.3-22 30.6v2h512l-.1-88.8c0-50.4-.4-87.8-.9-86.7-.8 1.9-.9 1.9-.9-.3-.1-1.5-.7-2.2-2.2-2.2-1.1 0-1.7-.5-1.4-1 .3-.6-.1-1-1-1s-1.3-.5-1-1c.4-.6.3-1-.2-.9-.4.1-1.9-.2-3.1-.6-1.7-.6-2-1-1.1-1.6 1-.6.8-1.3-.9-2.8-1.3-1-2.4-2.9-2.5-4-.1-1.2-.7-2.1-1.4-2.1s-1-.6-.8-1.3c.3-.6-.5-1.8-1.7-2.6-2.1-1.3-2.2-1.3-1 .2.8.9.9 1.8.4 2.1-.6.3-1.3-.1-1.6-1-.3-.8-1-1.3-1.5-1-1.3.8-3.2-1.9-2.5-3.7 1-2.6-1.3-2.8-2.5-.1zM439.5 325c.3.5.1 1-.4 1-.6 0-1.1-.5-1.1-1 0-.6.2-1 .4-1 .3 0 .8.4 1.1 1zM67 458c0 1.5-3.3 2.1-4.2.8-.5-.9-.8-.7-.9.7 0 1.1-.3 1.4-.6.7-.8-1.9 1.5-4.1 3.7-3.5 1.1.3 2 .9 2 1.3zm-16 1.6c0 .8-.5 1.2-1 .9-.6-.4-.8-1.1-.5-1.6.9-1.4 1.5-1.1 1.5.7zm-4.5 3.4c-.3.5-.1 1.9.5 3s.7 2 .3 2c-1.1 0-3.2-4.7-2.5-5.5.9-.9 2.3-.5 1.7.5zm-9.5 2.4c-1.4 1.3-2.7 2.1-3 1.9-.5-.5 3.8-4.3 4.8-4.3.4 0-.5 1.1-1.8 2.4zm7 .6c0 .5-.7.7-1.5.4-.8-.4-1.2-1-.9-1.5.6-1.1 2.4-.2 2.4 1.1zm9 1c0 .5-.8 1-1.7 1-1.5 0-1.6-.2-.3-1 1.9-1.2 2-1.2 2 0zm-20 1.4c0 .3-.4.8-1 1.1-.5.3-1 .1-1-.4 0-.6.5-1.1 1-1.1.6 0 1 .2 1 .4zm11 3.4c0 .4-1.1 1.2-2.5 1.8-2.4 1.2-2.4 1.2-.7-1.1 1.5-2.1 3.2-2.4 3.2-.7zm-7 2.2c0 .5-.5 1-1.1 1-.5 0-.7-.5-.4-1 .3-.6.8-1 1.1-1 .2 0 .4.4.4 1zm5.5 2c-.3.5-1.1 1-1.6 1-.6 0-.7-.5-.4-1 .3-.6 1.1-1 1.6-1 .6 0 .7.4.4 1zm-14.8 4.5c-2.3 2.2-3.3 1.8-1.2-.5 1-1.1 2-1.8 2.3-1.6.2.3-.3 1.2-1.1 2.1zm16.7 0c-.4.8-1 1.2-1.5.9-1.1-.6-.2-2.4 1.1-2.4.5 0 .7.7.4 1.5zm-9.4 1.8c0 .2-.9 1.2-1.9 2.1-1.5 1.4-2.1 1.5-2.7.4-.4-.7-.4-1 .1-.6.4.4 1.4.1 2.2-.7 1.4-1.4 2.3-1.9 2.3-1.2zm20.2.9c-.9.9-1.5.9-2.4 0-.9-.9-.7-1.2 1.2-1.2s2.1.3 1.2 1.2zm-9 6c-.7.7-1.2.8-1.2.2 0-1.4 1.2-2.6 1.9-1.9.2.3-.1 1.1-.7 1.7zM18 490.4c0 .2-.7.9-1.5 1.6-1.3 1.1-1.4 1-.9-.4.5-1.4 2.4-2.3 2.4-1.2zm-10 15c0 .3-.4.8-1 1.1-.5.3-1 .1-1-.4 0-.6.5-1.1 1-1.1.6 0 1 .2 1 .4z"/><path d="M487.5 314c.3.5.8 1 1.1 1 .2 0 .4-.5.4-1 0-.6-.5-1-1.1-1-.5 0-.7.4-.4 1zM326.7 314.7c-.4.3-.7 1.1-.7 1.7 0 .6.5.5 1.2-.2.6-.6.9-1.4.7-1.7-.3-.3-.9-.2-1.2.2zM353.2 316.2c-.6.7-2.9 1.2-5.1 1.2-2.3-.1-3.8.2-3.5.7.3.5 1.1.9 1.8.9 1.8 0 2.7 3.5 1.3 4.9-.8.8.3 1.1 3.9 1 8.4-.2 9.6-.9 10-5.7.3-4.6-.2-5.1-2.2-2.5-1.3 1.7-1.5 1.7-2.5 0-1.2-2-2.3-2.2-3.7-.5zM430 322.1c0 .5-.4.8-.9.5-.5-.3-1.5.2-2.2 1.2-1.3 1.5-1.2 1.6.3.3 1.5-1.1 1.9-1.1 2.4.2.3.9.2 2.2-.2 2.9-.4.7.3.4 1.6-.7l2.3-2-.8 2.5c-.5 1.7-.4 2.2.3 1.5 1-1 1.6-3.7 1.3-6.5-.1-1.2-.4-1.2-1.2.2-1.2 2.2-3.1 2.4-2.3.3.4-.8.3-1.5 0-1.5s-.6.5-.6 1.1zM244 333.7c0 .6.4 1.4 1 1.8.5.3.7 1.2.3 2-.3.8 0 1.5.6 1.5s1.1-.6 1.1-1.3c0-1.7-2.9-5.6-3-4zM251.1 335.6c0 1.1.3 1.4.6.6.3-.7.2-1.6-.1-1.9-.3-.4-.6.2-.5 1.3zM234.3 338.5c0 .8.4 1.5.9 1.5.4 0 .8-.7.8-1.5s-.4-1.5-.8-1.5c-.5 0-.9.7-.9 1.5zM240.1 341.2c-1 2.8-.2 6.6 1 4.6.5-.7.6-2.2.3-3.3l-.6-2 1.6 2c1.7 2.3 2.1 3.9.6 3-1.7-1-1.1.4 1 2.5l2 2 .1-2.3c.1-1.2.1-2.8 0-3.4-.1-.7.5-1 1.2-.7.8.3 1.7-.2 2.1-1.2.9-2.5 0-2.9-2-.9-1.7 1.7-1.9 1.6-3.5-.4-2.2-2.7-2.8-2.6-3.8.1zM257.4 341.5c-.3.8-.4 2-.2 2.7.3.7.7.1 1-1.5.6-2.9.1-3.6-.8-1.2zM262 341.9c0 .6.4 1.3 1 1.6.6.3.7-.1.4-.9-.7-1.8-1.4-2.1-1.4-.7z"/><path d="M248.5 346c-1.2 1.3-1.4 2-.5 2 .8 0 1 .6.5 1.7-.9 2.1-1.4 7.5-.7 6.8.8-.7 4.2 2.6 4.2 4.1 0 2 1.9 2.7 3.6 1.3 1.2-1 1.3-.9.8.4-.3 1 .2 2 1.5 2.7 1.2.6 2.1 1.5 2.1 2.1 0 .6-.4.7-1 .4-1.1-.7-2.6 4.2-1.6 5.3.4.3 2.1.6 3.9.7 2.4 0 3.2.4 3.1 1.7-.1 1 .5 1.7 1.5 1.6 3.9-.3 7.1.3 7.1 1.3 0 .7.8 1.7 1.7 2.4 1.2.9 1.4 1.7.8 2.7-.6.7.1.1 1.5-1.4 1.7-1.9 2.9-2.5 3.9-1.9.7.5 1 1.4.7 2-1.1 1.7 1 1.3 2.4-.4.7-.8 1.9-1.5 2.7-1.5 1.2 0 1.3.3.5 1.3-.6.7-.7 1.8-.3 2.6.7 1 1.5 1 4.3-.2 3.2-1.3 3.7-1.3 5 .2.8.9 1.2 2.3 1 3.1-.2.8.3.6 1.2-.5 1.4-1.8 1.5-1.9 1.6-.2 0 1 .4 1.6.9 1.3.4-.3.7-1.6.6-2.8-.1-1.3-.3-2.9-.4-3.7-.1-.8-.7-1.1-1.8-.6-1.1.4-.6-.7 1.3-2.7 1.7-1.8 3.6-4.1 4.1-5.1.8-1.5 1-1.3 1 1.5 0 1.8-.2 2.7-.5 2-.3-1-.8-.9-2.3.4-2.2 2-2.5 3.8-.5 3.1 1.1-.5 1.4.3 1.3 3.1-.2 4.1 1.3 5.5 2.8 2.6 1.3-2.3 3.7-3 2.9-.9-.4.8-1 1.5-1.5 1.5s-.9.5-.9 1.2c0 .6.3.8.7.5.3-.4 1.8.3 3.1 1.5l2.5 2.3-.6-2.5c-.5-2.2-.5-2.3.7-.8 1.5 2 2.6 2.3 2.6.8 0-.6.9-2.1 2-3.2 1.4-1.6 2.3-1.9 3.1-1.1 1.3 1.3-.7 5-3.1 5.7-1.2.3-1.2.4.2.5.9 0 2.4-.6 3.2-1.5 1.5-1.4 1.6-1.4 1.6.1 0 .9.6 1.5 1.3 1.2 1.2-.4 1.3-1.3.3-5.7-.4-1.4-.4-1.9 0-1.3.9 2 2.4 1.5 2.4-.7 0-1.1.7-2 1.5-2s1.5-.6 1.5-1.3c0-.7.3-.8.8-.2.4.5 1.3 1 2.1 1s1.6.5 1.8 1.1c.5 1.5-3.9 2.7-4.8 1.3-.3-.6-1.3.1-2.3 1.6-1.7 2.6-1.4 4.5.8 4.5 2 0 7.7-6.2 7.1-7.7-.3-.8-.5-2.1-.5-3 0-.8-.6-1.3-1.3-1-.7.3-1.9-.3-2.5-1.4-1-1.5-.9-1.7.3-1.3.8.4 1.5.1 1.5-.5 0-1.4 3.7-5.1 5.1-5.1.8 0 .8.5-.1 1.5-.7.8-1.6 1.3-2 1-1.4-.8-2 2.6-.9 4.7 1 1.9 1.2 1.8 3.5-1.4 1.4-1.8 3-3.3 3.7-3.3.7 0 1-.9.9-2-.3-1.5-.1-1.7 1.1-.7.7.6 1.7.9 2 .5.4-.3 1.3-.1 2.1.6s1.5.8 1.8.2c.1-.5 1.4-1.2 2.8-1.4 3.5-.6 6-1.8 6-2.9 0-.5-.8-.7-1.9-.3-1.2.3-2.1 0-2.5-1-.8-2.2-2.1-1.9-3.6 1-1.7 3.2-3.4 3.2-2.6 0 .5-1.8.2-2.7-1-3.2-.8-.3-2-1.5-2.4-2.7-.8-1.9-.9-1.8-.9.8-.1 2.4-.3 2.6-1.5 1.6-.8-.6-1.2-1.9-.9-2.7.4-1.1.2-1.4-.5-.9-1.6 1-1.5-.7.1-2.3 1-1 .9-1.1-.5-.6-1 .4-1.8 1.6-1.8 2.7 0 1.2-.4 1.7-1.2 1.2-.7-.3.3.8 2.2 2.4 1.9 1.7 3.1 3.5 2.7 3.9-.5.4-1.2.1-1.7-.7-.6-.8-1-1.1-1-.5 0 .5-.7 0-1.5-1.2-1.5-2.2-4.5-2.2-4.5-.1 0 .6.7.8 1.4.5 1-.4 1.3-.1.9.9s-.9 1.1-1.7.5c-.8-.7-1.6-.4-2.6.9-2.1 2.9-4.4 2.6-3.6-.5.5-1.9.3-2.3-.9-1.9-.8.4-1.5 1.4-1.5 2.4 0 1.1-.5 2.2-1.1 2.6-.8.4-.9 0-.4-1.5.4-1.2.2-2.1-.4-2.1-.6 0-1.1.6-1.1 1.2 0 .9-.4.8-1-.2s-1-1.1-1-.3c0 .7-.4 1.3-1 1.3-.5 0-.6-.7-.3-1.7.4-1 .2-1.4-.5-.9-.6.3-1.5-.1-2-1-.7-1.2-1.5-1.5-2.8-.9-1.1.4-2.4.9-3.1.9-.7.1-1.9 1-2.7 2.1-1.8 2.6-2.9 1.5-1.7-1.6.5-1.3 1-1.8 1-1 .1 1.1.4 1.1 1.6.1 1.8-1.5 2.1-4.5.3-3.3-3 1.8-7.4 2.1-7 .4.3-1.2 0-1.2-1.2-.1-.9.7-1.6.9-1.6.6 0-.4-.7-.1-1.5.8-.8.8-1.5 1.9-1.5 2.5 0 1.4-.9 1.4-5 0-2.5-.9-3.4-.9-4 .1-.4.7-1.3.9-1.9.6-.6-.4-1.1-.1-1.1.6-.1.7-.7.2-1.4-1.1-1.3-2.3-1.4-2.3-2.4-.5-1.1 1.8-1.1 1.8-1.2-.4 0-1.2-.5-2.2-1.1-2.2-.6 0-.9-.7-.5-1.5.9-2.4-.9-1.8-3 1-1 1.4-2.2 2.5-2.5 2.5-.7 0-2.1-5.9-2.3-9.4-.1-1.1-.7-2.1-1.5-2.4-.9-.3-1.1.1-.7 1.6.6 1.7.3 1.9-1.3 1.5-2.5-.6-3.6-3.3-1.4-3.3 1.5 0 1.5-.2-.1-1.8-.9-.9-2.4-2.6-3.2-3.7-1.5-2-1.5-2-1.1.3.5 1.9.3 2.1-.9 1.1-1.1-.9-1.4-.8-1.4.9 0 1.1.6 2.2 1.3 2.5.6.2.9.8.5 1.2-.4.4-1.8-1.2-3.2-3.4-3-4.6-6.1-5.4-9.1-2.1zm4.8 1.8c.2-.7.3-.4.1.7-.2 1.1-.4 3.1-.4 4.4 0 2-.2 2.1-1.5 1.1-1.1-.9-1.2-1.7-.4-3.1.5-1.1.6-1.9 0-1.9-.5 0-1.2-.8-1.5-1.7-.6-1.5-.5-1.5 1.3.1 1.5 1.3 2 1.4 2.4.4zm3.7 5.1c0 .6-.4 1.3-1 1.6-.5.3-1-.1-1-.9 0-.9.5-1.6 1-1.6.6 0 1 .4 1 .9zm12.1 3.8c.6 3.2.5 5.2-.1 4.8-1.1-.7-1.9-5.5-.9-5.5.5 0 1 .3 1 .7zM262 359c.8.5 1.1 1.2.7 1.7-.5.4-1.2.2-1.6-.6-.6-.9-1-.6-1.4 1-.4 1.3-.8 2.1-1.1 1.8-.7-.6.4-4.9 1.3-4.9.3 0 1.3.4 2.1 1zm3 4.6c0 .8-.5 1.2-1 .9-.6-.4-.8-1.1-.5-1.6.9-1.4 1.5-1.1 1.5.7zm13.6 2.1c-.7.7-2.6-.7-2.6-1.9 0-.6.6-.6 1.5.2.9.7 1.3 1.5 1.1 1.7zm22.7-.8c.3 1.3.1 1.8-.9 1.4-.7-.2-1-1.1-.7-1.9.7-1.9 1-1.8 1.6.5zm3.7.1c0 .5-.5 1-1.1 1-.5 0-.7-.5-.4-1 .3-.6.8-1 1.1-1 .2 0 .4.4.4 1zm-33.6 1.5c-.4.8-1.4 1.5-2.4 1.5s-2.4.8-3.1 1.7c-.8.9-.9 1.4-.4 1.1.6-.3 1.9-.2 3 .3 1.8.7 1.8.8-.5.8-4 .1-5.4-1.2-3.3-3.2 1.4-1.2 4.8-3 7-3.6.1-.1 0 .6-.3 1.4zm42.3 1.1c-.3.3-1.2.4-1.9.1-.8-.3-.5-.6.6-.6 1.1-.1 1.7.2 1.3.5zm14 3.9c0 .8-.4 1.2-.9.9-.5-.3-.6-1-.3-1.5.9-1.3 1.2-1.1 1.2.6zm-10.7 1.9c0 .3-.4.8-1 1.1-.5.3-1 .1-1-.4 0-.6.5-1.1 1-1.1.6 0 1 .2 1 .4zm-39.6 4.2c.4 1 .1 1.4-.6 1.2-1.5-.5-2.3-2.8-1-2.8.5 0 1.3.7 1.6 1.6zm29.7 3.7c-2 2-2.2 2.1-1.5.2.8-2.1 2.5-3.7 3.3-2.9.3.2-.5 1.5-1.8 2.7zm-13.1-.8c-.7.9-1.5 1.3-1.7 1.1-.7-.7.7-2.6 1.9-2.6.6 0 .6.6-.2 1.5zm17.6 5.3c-1.8 1.6-1.8 1.6-.6-.6.6-1.3 1.4-2.1 1.8-1.8.3.4-.2 1.4-1.2 2.4z"/><path d="M306.6 355.8c-.3.6-.1 1.4.5 1.7 1.4.9 2 .2 1-1.4-.6-.8-1.1-.9-1.5-.3zM312.9 356.7c-1.3 1.5-1.2 1.5.9.4 2.3-1.2 2.8-2.1 1.3-2.1-.5 0-1.5.7-2.2 1.7zM320.7 357.9c-.4 1.7-.3 2.1.5 1.3.5-.5.8-1.6.6-2.3-.3-.8-.7-.3-1.1 1zM330.5 363c.3.5 1 1 1.6 1 .5 0 .9-.5.9-1 0-.6-.7-1-1.6-1-.8 0-1.2.4-.9 1zM360 364.2c0 .4.4.8.9.8.6 0 1.2-.4 1.5-.8.3-.5-.1-.9-.9-.9s-1.5.4-1.5.9zM341 374.6c0 .8.5 1.2 1 .9.6-.4.8-1.1.5-1.6-.9-1.4-1.5-1.1-1.5.7zM116 385c0 .5.5 1 1.1 1 .5 0 .7-.5.4-1-.3-.6-.8-1-1.1-1-.2 0-.4.4-.4 1zM101 418c0 .7-.3 1-.6.7-.4-.4-1.5.3-2.5 1.5-2.4 2.7-2.4 3.1-.1 1.9 2.5-1.3 4.6-4 3.8-4.8-.3-.3-.6 0-.6.7z"/></svg>